REM DIRINDEX 1\2\6,1\2\7,1\2\8,1\3\9,1\3\10,1\3\11,1\4\12,1\4\13,1\4\14,1\5\15,1\5\16,1\5\17,1\5\18
REM DIRNAME folder01,folder02,folder03,folder04,folder05,folder06,folder07,folder08,folder09,folder10,folder11,folder12,folder13,folder14,folder15,folder16,folder17,folder18
TITLE ""
FILE "" MP3
  TRACK 01 AUDIO
    TITLE "15:cjc019_7277"
    INDEX 01 00:00:00
  TRACK 02 AUDIO
    TITLE "0:"
    INDEX 01 00:07:25
  TRACK 03 AUDIO
    TITLE "16:cjc019_7278"
    INDEX 01 00:08:38
  TRACK 04 AUDIO
    TITLE "0:"
    INDEX 01 00:09:45
  TRACK 05 AUDIO
    TITLE "18:cjc019_7279"
    INDEX 01 00:10:25
  TRACK 06 AUDIO
    TITLE "0:"
    INDEX 01 00:12:63
  TRACK 07 AUDIO
    TITLE "17:cjc019_7280"
    INDEX 01 00:13:43
  TRACK 08 AUDIO
    TITLE "0:"
    INDEX 01 00:14:54
  TRACK 09 AUDIO
    TITLE "16:cjc019_7281"
    INDEX 01 00:16:36
  TRACK 10 AUDIO
    TITLE "0:"
    INDEX 01 00:17:63
  TRACK 11 AUDIO
    TITLE "18:cjc019_7282"
    INDEX 01 00:18:44
  TRACK 12 AUDIO
    TITLE "0:"
    INDEX 01 00:21:60
  TRACK 13 AUDIO
    TITLE "17:cjc019_7283"
    INDEX 01 00:22:38
  TRACK 14 AUDIO
    TITLE "0:"
    INDEX 01 00:23:63
  TRACK 15 AUDIO
    TITLE "16:cjc019_7284"
    INDEX 01 00:25:45
  TRACK 16 AUDIO
    TITLE "0:"
    INDEX 01 00:26:54
  TRACK 17 AUDIO
    TITLE "18:cjc019_7285"
    INDEX 01 00:27:34
  TRACK 18 AUDIO
    TITLE "0:"
    INDEX 01 00:29:42
  TRACK 19 AUDIO
    TITLE "17:cjc019_7286"
    INDEX 01 00:30:16
  TRACK 20 AUDIO
    TITLE "0:"
    INDEX 01 00:31:27
  TRACK 21 AUDIO
    TITLE "16:cjc019_7287"
    INDEX 01 00:33:11
  TRACK 22 AUDIO
    TITLE "0:"
    INDEX 01 00:34:22
  TRACK 23 AUDIO
    TITLE "18:cjc019_7288"
    INDEX 01 00:35:04
  TRACK 24 AUDIO
    TITLE "0:"
    INDEX 01 00:37:36
  TRACK 25 AUDIO
    TITLE "17:cjc019_7289"
    INDEX 01 00:38:12
  TRACK 26 AUDIO
    TITLE "0:"
    INDEX 01 00:39:21
  TRACK 27 AUDIO
    TITLE "16:cjc019_7290"
    INDEX 01 00:41:04
  TRACK 28 AUDIO
    TITLE "0:"
    INDEX 01 00:42:27
  TRACK 29 AUDIO
    TITLE "18:cjc019_7291"
    INDEX 01 00:43:03
  TRACK 30 AUDIO
    TITLE "0:"
    INDEX 01 00:44:69
  TRACK 31 AUDIO
    TITLE "17:cjc019_7292"
    INDEX 01 00:45:51
  TRACK 32 AUDIO
    TITLE "0:"
    INDEX 01 00:47:03
  TRACK 33 AUDIO
    TITLE "16:cjc019_7293"
    INDEX 01 00:48:49
  TRACK 34 AUDIO
    TITLE "0:"
    INDEX 01 00:49:45
  TRACK 35 AUDIO
    TITLE "18:cjc019_7294"
    INDEX 01 00:50:33
  TRACK 36 AUDIO
    TITLE "0:"
    INDEX 01 00:54:13
  TRACK 37 AUDIO
    TITLE "17:cjc019_7295"
    INDEX 01 00:54:62
  TRACK 38 AUDIO
    TITLE "0:"
    INDEX 01 00:55:57
  TRACK 39 AUDIO
    TITLE "16:cjc019_7296"
    INDEX 01 00:57:52
  TRACK 40 AUDIO
    TITLE "0:"
    INDEX 01 00:59:06
  TRACK 41 AUDIO
    TITLE "18:cjc019_7297"
    INDEX 01 00:59:61
  TRACK 42 AUDIO
    TITLE "0:"
    INDEX 01 01:01:15
  TRACK 43 AUDIO
    TITLE "17:cjc019_7298"
    INDEX 01 01:01:66
  TRACK 44 AUDIO
    TITLE "0:"
    INDEX 01 01:03:24
  TRACK 45 AUDIO
    TITLE "16:cjc019_7299"
    INDEX 01 01:04:74
  TRACK 46 AUDIO
    TITLE "0:"
    INDEX 01 01:06:10
  TRACK 47 AUDIO
    TITLE "18:cjc019_7300"
    INDEX 01 01:06:71
  TRACK 48 AUDIO
    TITLE "0:"
    INDEX 01 01:08:27
  TRACK 49 AUDIO
    TITLE "17:cjc019_7301"
    INDEX 01 01:09:03
  TRACK 50 AUDIO
    TITLE "0:"
    INDEX 01 01:10:18
  TRACK 51 AUDIO
    TITLE "16:cjc019_7302"
    INDEX 01 01:12:05
  TRACK 52 AUDIO
    TITLE "0:"
    INDEX 01 01:13:57
  TRACK 53 AUDIO
    TITLE "18:cjc019_7303"
    INDEX 01 01:14:41
  TRACK 54 AUDIO
    TITLE "0:"
    INDEX 01 01:17:63
  TRACK 55 AUDIO
    TITLE "17:cjc019_7304"
    INDEX 01 01:18:41
  TRACK 56 AUDIO
    TITLE "0:"
    INDEX 01 01:20:12
  TRACK 57 AUDIO
    TITLE "16:cjc019_7305"
    INDEX 01 01:21:67
  TRACK 58 AUDIO
    TITLE "0:"
    INDEX 01 01:23:42
  TRACK 59 AUDIO
    TITLE "18:cjc019_7306"
    INDEX 01 01:24:22
  TRACK 60 AUDIO
    TITLE "0:"
    INDEX 01 01:25:33
  TRACK 61 AUDIO
    TITLE "17:cjc019_7307"
    INDEX 01 01:26:19
  TRACK 62 AUDIO
    TITLE "0:"
    INDEX 01 01:27:63
  TRACK 63 AUDIO
    TITLE "16:cjc019_7308"
    INDEX 01 01:29:48
  TRACK 64 AUDIO
    TITLE "0:"
    INDEX 01 01:30:60
  TRACK 65 AUDIO
    TITLE "18:cjc019_7309"
    INDEX 01 01:31:39
  TRACK 66 AUDIO
    TITLE "0:"
    INDEX 01 01:36:39
  TRACK 67 AUDIO
    TITLE "17:cjc019_7310"
    INDEX 01 01:37:19
  TRACK 68 AUDIO
    TITLE "0:"
    INDEX 01 01:38:28
  TRACK 69 AUDIO
    TITLE "16:cjc019_7311"
    INDEX 01 01:40:17
  TRACK 70 AUDIO
    TITLE "0:"
    INDEX 01 01:41:57
  TRACK 71 AUDIO
    TITLE "18:cjc019_7312"
    INDEX 01 01:42:35
  TRACK 72 AUDIO
    TITLE "0:"
    INDEX 01 01:46:12
  TRACK 73 AUDIO
    TITLE "17:cjc019_7313"
    INDEX 01 01:46:61
  TRACK 74 AUDIO
    TITLE "0:"
    INDEX 01 01:48:28
  TRACK 75 AUDIO
    TITLE "16:cjc019_7314"
    INDEX 01 01:50:00
  TRACK 76 AUDIO
    TITLE "0:"
    INDEX 01 01:51:19
  TRACK 77 AUDIO
    TITLE "18:cjc019_7315"
    INDEX 01 01:51:66
  TRACK 78 AUDIO
    TITLE "0:"
    INDEX 01 01:54:09
  TRACK 79 AUDIO
    TITLE "17:cjc019_7316"
    INDEX 01 01:54:60
  TRACK 80 AUDIO
    TITLE "0:"
    INDEX 01 01:56:06
  TRACK 81 AUDIO
    TITLE "16:cjc019_7317"
    INDEX 01 01:57:60
  TRACK 82 AUDIO
    TITLE "0:"
    INDEX 01 01:59:01
  TRACK 83 AUDIO
    TITLE "18:cjc019_7318"
    INDEX 01 01:59:55
  TRACK 84 AUDIO
    TITLE "0:"
    INDEX 01 02:01:03
  TRACK 85 AUDIO
    TITLE "17:cjc019_7319"
    INDEX 01 02:01:56
  TRACK 86 AUDIO
    TITLE "0:"
    INDEX 01 02:02:69
  TRACK 87 AUDIO
    TITLE "16:cjc019_7320"
    INDEX 01 02:04:53
  TRACK 88 AUDIO
    TITLE "0:"
    INDEX 01 02:06:06
  TRACK 89 AUDIO
    TITLE "18:cjc019_7321"
    INDEX 01 02:06:59
  TRACK 90 AUDIO
    TITLE "0:"
    INDEX 01 02:08:48
  TRACK 91 AUDIO
    TITLE "17:cjc019_7322"
    INDEX 01 02:09:22
  TRACK 92 AUDIO
    TITLE "0:"
    INDEX 01 02:10:49
  TRACK 93 AUDIO
    TITLE "16:cjc019_7323"
    INDEX 01 02:12:33
  TRACK 94 AUDIO
    TITLE "0:"
    INDEX 01 02:13:42
  TRACK 95 AUDIO
    TITLE "18:cjc019_7324"
    INDEX 01 02:14:26
  TRACK 96 AUDIO
    TITLE "0:"
    INDEX 01 02:18:21
  TRACK 97 AUDIO
    TITLE "17:cjc019_7325"
    INDEX 01 02:18:74
  TRACK 98 AUDIO
    TITLE "0:"
    INDEX 01 02:20:11
  TRACK 99 AUDIO
    TITLE "16:cjc019_7326"
    INDEX 01 02:21:63
  TRACK 100 AUDIO
    TITLE "0:"
    INDEX 01 02:23:09
  TRACK 101 AUDIO
    TITLE "18:cjc019_7327"
    INDEX 01 02:23:66
  TRACK 102 AUDIO
    TITLE "0:"
    INDEX 01 02:25:16
  TRACK 103 AUDIO
    TITLE "17:cjc019_7328"
    INDEX 01 02:25:67
  TRACK 104 AUDIO
    TITLE "0:"
    INDEX 01 02:27:16
